<svg width="44" height="17" viewBox="0 0 44 17" fill="none" xmlns="http://www.w3.org/2000/svg">
<path d="M7.55493 3.4541C6.90235 3.4541 6.3729 4.01331 6.3729 4.70256V5.95101H5.19088C4.97418 5.95101 4.79688 6.13828 4.79688 6.36716C4.79688 6.59605 4.97418 6.78332 5.19088 6.78332H11.495C11.7117 6.78332 11.889 6.97058 11.889 7.19947C11.889 7.42835 11.7117 7.61562 11.495 7.61562H5.9789C5.76219 7.61562 5.58489 7.80289 5.58489 8.03177C5.58489 8.26066 5.76219 8.44792 5.9789 8.44792H10.707C10.9237 8.44792 11.101 8.63519 11.101 8.86408C11.101 9.09296 10.9237 9.28023 10.707 9.28023H5.19088C4.97418 9.28023 4.79688 9.4675 4.79688 9.69638C4.79688 9.92526 4.97418 10.1125 5.19088 10.1125H9.91897C10.1357 10.1125 10.313 10.2998 10.313 10.5287C10.313 10.7576 10.1357 10.9448 9.91897 10.9448H6.3729V14.274C6.3729 15.6526 7.4318 16.771 8.73695 16.771C10.0421 16.771 11.101 15.6526 11.101 14.274L36.8722 14.5029C36.8722 15.8814 37.9311 16.9998 39.2362 16.9998C40.5414 16.9998 41.6003 15.8814 41.6003 14.5029H42.3883C42.8242 14.5029 43.1763 14.1309 43.1763 13.6706C43.1763 13.2102 42.8242 12.8383 42.3883 12.8383V9.85496C42.3883 9.4128 42.2233 8.98884 41.9278 8.67673L40.0243 6.66619C39.7288 6.35408 39.3274 6.17982 38.9087 6.17982H37.6602V4.93136C37.6602 4.24211 37.1308 3.68291 36.4782 3.68291L7.55493 3.4541ZM40.8123 9.85496V10.3413H37.6602V7.84442H38.9087L40.8123 9.85496ZM8.73695 15.5225C8.08437 15.5225 7.55493 14.9633 7.55493 14.274C7.55493 13.5848 8.08437 13.0256 8.73695 13.0256C9.38952 13.0256 9.91897 13.5848 9.91897 14.274C9.91897 14.9633 9.38952 15.5225 8.73695 15.5225ZM40.4183 14.5029C40.4183 15.1921 39.8888 15.7513 39.2362 15.7513C38.5837 15.7513 38.0542 15.1921 38.0542 14.5029C38.0542 13.8136 38.5837 13.2544 39.2362 13.2544C39.8888 13.2544 40.4183 13.8136 40.4183 14.5029Z" fill="#004B5A"/>
<path d="M15.3912 11.6055L16.1682 6.67047H19.5002L19.3672 7.51747H17.1272L16.9312 8.72147H19.0242L18.8912 9.56847H16.7982L16.4762 11.6055H15.3912ZM19.3763 11.6055L20.1603 6.67047H22.1833C22.734 6.67047 23.154 6.79414 23.4433 7.04147C23.7373 7.2888 23.8843 7.62714 23.8843 8.05647C23.8843 8.5138 23.7607 8.87314 23.5133 9.13447C23.2707 9.39114 22.951 9.5568 22.5543 9.63147C22.6803 9.6828 22.7877 9.76447 22.8763 9.87647C22.9697 9.98847 23.0467 10.1238 23.1073 10.2825L23.6113 11.6055H22.4983L21.9313 10.1075C21.8753 9.95814 21.803 9.85314 21.7143 9.79247C21.6257 9.72714 21.502 9.69447 21.3433 9.69447H20.7623L20.4683 11.6055H19.3763ZM20.8883 8.91047H21.9523C22.237 8.91047 22.4563 8.84747 22.6103 8.72147C22.7643 8.5908 22.8413 8.39947 22.8413 8.14747C22.8413 7.93747 22.7737 7.78114 22.6383 7.67847C22.5077 7.57114 22.2977 7.51747 22.0083 7.51747H21.1123L20.8883 8.91047ZM24.2574 11.6055L25.0344 6.67047H28.4154L28.2824 7.51747H25.9374L25.7554 8.67247H27.9464L27.8134 9.52647H25.6224L25.4264 10.7585H27.7644L27.6314 11.6055H24.2574ZM28.4956 11.6055L29.2726 6.67047H32.6536L32.5206 7.51747H30.1756L29.9936 8.67247H32.1846L32.0516 9.52647H29.8606L29.6646 10.7585H32.0026L31.8696 11.6055H28.4956Z" fill="#F7F0D9"/>
<circle cx="6.3326" cy="6.3326" r="6.3326" fill="#E21A1A"/>
<path d="M1.95545 8.84473L2.08845 8.03973L3.83845 6.42273C4.07645 6.20806 4.26079 6.01206 4.39145 5.83473C4.52212 5.65739 4.58745 5.46839 4.58745 5.26773C4.58745 5.09973 4.52679 4.96906 4.40545 4.87573C4.28879 4.78239 4.12779 4.73573 3.92245 4.73573C3.72645 4.73573 3.52812 4.77773 3.32745 4.86173C3.12679 4.94106 2.92379 5.05539 2.71845 5.20473L2.40345 4.39273C2.65079 4.21539 2.92379 4.07773 3.22245 3.97973C3.52112 3.88173 3.83145 3.83273 4.15345 3.83273C4.45679 3.83273 4.72045 3.88873 4.94445 4.00073C5.17312 4.10806 5.34812 4.25739 5.46945 4.44873C5.59545 4.63539 5.65845 4.85006 5.65845 5.09273C5.65845 5.36339 5.60945 5.60839 5.51145 5.82773C5.41812 6.04706 5.28512 6.25239 5.11245 6.44373C4.93979 6.63506 4.74145 6.82639 4.51745 7.01773L3.46045 7.95573H5.42745L5.28745 8.84473H1.95545ZM6.01972 8.84473L6.80372 3.90973H7.86072L7.55272 5.88373C7.80472 5.51973 8.18039 5.33773 8.67972 5.33773C9.05305 5.33773 9.33772 5.45439 9.53372 5.68773C9.73439 5.92106 9.79505 6.29206 9.71572 6.80073L9.39372 8.84473H8.33672L8.65172 6.82173C8.72639 6.37839 8.58405 6.15673 8.22472 6.15673C7.98672 6.15673 7.79539 6.23373 7.65072 6.38773C7.50605 6.53706 7.41272 6.74473 7.37072 7.01073L7.07672 8.84473H6.01972Z" fill="white"/>
</svg>
